<?xml version="1.0" encoding="utf-8"?>
<!-- Generator: Adobe Illustrator 28.0.0, SVG Export Plug-In . SVG Version: 6.00 Build 0)  -->
<svg version="1.1" id="Layer_1" xmlns="http://www.w3.org/2000/svg" xmlns:xlink="http://www.w3.org/1999/xlink" x="0px" y="0px"
	 viewBox="0 0 512 512" style="enable-background:new 0 0 512 512;" xml:space="preserve">
<style type="text/css">
	.st0{fill:#FAFF00;}
</style>
<g>
	<path class="st0" d="M344.59,67.85c0.68,0,1.34,0.17,1.93,0.51c0.59,0.34,1.07,0.83,1.41,1.42c0.34,0.59,0.52,1.25,0.52,1.93
		c0,0.68-0.18,1.35-0.52,1.93l-27.04,46.89c-0.82,1.35-1.97,2.47-3.35,3.24c-1.38,0.77-2.93,1.17-4.51,1.15H194
		c-16.8,0.01-33.31,4.45-47.85,12.87s-26.61,20.51-35,35.08L51.53,276.13c-0.34,0.58-0.83,1.07-1.41,1.4
		c-0.59,0.34-1.25,0.51-1.92,0.51c-0.68,0-1.34-0.18-1.92-0.51c-0.59-0.34-1.07-0.82-1.41-1.4L27.3,245.66
		c-0.72-1.27-1.13-2.69-1.2-4.15c-0.06-1.46,0.23-2.91,0.84-4.24l53.39-114.15c7.76-16.52,20.07-30.5,35.47-40.28
		c15.41-9.79,33.29-14.99,51.54-14.99H344.59z"/>
	<path class="st0" d="M453.78,67.85c0.68,0.01,1.34,0.19,1.92,0.53c0.58,0.34,1.07,0.82,1.41,1.41c0.34,0.59,0.52,1.25,0.52,1.93
		c0,0.68-0.18,1.35-0.52,1.93l-77.62,134.7c-6.4,11.06-15.6,20.25-26.68,26.64c-11.07,6.39-23.63,9.75-36.41,9.76H195.27
		c-16.78,0.1-33.24,4.56-47.76,12.95c-14.53,8.39-26.62,20.42-35.08,34.91L23.96,442.22c-0.34,0.58-0.83,1.07-1.41,1.4
		c-0.59,0.34-1.25,0.51-1.92,0.51c-0.68,0-1.34-0.18-1.92-0.51c-0.59-0.34-1.07-0.82-1.41-1.4L1.22,414.38
		c-0.8-1.39-1.22-2.96-1.22-4.57c0-1.6,0.42-3.18,1.22-4.57l129.69-220.97c6.43-11.04,15.63-20.21,26.7-26.6
		c11.07-6.38,23.61-9.76,36.39-9.8h119.02c5.6,0,11.1-1.47,15.94-4.27c4.85-2.8,8.87-6.82,11.67-11.67l34.42-59.71
		c0.81-1.35,1.97-2.47,3.34-3.24c1.38-0.77,2.94-1.17,4.51-1.15H453.78z"/>
	<path class="st0" d="M167.04,444.15c-0.68-0.01-1.34-0.19-1.92-0.53c-0.58-0.34-1.07-0.82-1.41-1.41
		c-0.32-0.59-0.49-1.26-0.49-1.93s0.17-1.34,0.49-1.93l27.09-46.85c0.82-1.35,1.97-2.47,3.35-3.24c1.38-0.77,2.93-1.17,4.51-1.15
		h118.98c16.81-0.01,33.32-4.45,47.86-12.88c14.54-8.42,26.61-20.53,34.99-35.11l59.66-103.26c0.33-0.59,0.82-1.08,1.4-1.42
		c0.59-0.34,1.26-0.52,1.93-0.51c0.68,0.01,1.34,0.19,1.92,0.53c0.58,0.34,1.07,0.82,1.41,1.41l17.56,30.47
		c0.73,1.26,1.15,2.69,1.22,4.14c0.07,1.46-0.21,2.91-0.82,4.24l-53.39,114.15c-7.76,16.53-20.07,30.51-35.49,40.3
		c-15.42,9.79-33.3,14.98-51.57,14.98H167.04z"/>
	<path class="st0" d="M57.9,444.15c-0.68,0-1.34-0.18-1.93-0.52c-0.59-0.34-1.07-0.83-1.41-1.41c-0.34-0.59-0.52-1.25-0.52-1.93
		c0-0.68,0.18-1.34,0.52-1.93l77.62-134.52c6.4-11.07,15.59-20.26,26.67-26.65c11.07-6.39,23.64-9.75,36.42-9.75h121.09
		c16.78-0.1,33.24-4.56,47.76-12.95c14.53-8.39,26.62-20.42,35.08-34.91l88.77-149.8c0.34-0.58,0.83-1.07,1.41-1.41
		c0.58-0.34,1.25-0.52,1.92-0.53c0.68,0,1.34,0.17,1.93,0.51c0.58,0.34,1.07,0.83,1.4,1.42l16.11,27.83
		c0.81,1.39,1.24,2.96,1.24,4.57c0,1.6-0.43,3.18-1.24,4.57l-130,220.97c-6.43,11.04-15.64,20.21-26.7,26.59
		c-11.07,6.38-23.61,9.76-36.39,9.8H198.61c-5.56,0.05-11.01,1.54-15.81,4.34c-4.8,2.79-8.8,6.79-11.59,11.6l-34.6,59.58
		c-0.81,1.35-1.97,2.47-3.34,3.24c-1.38,0.77-2.94,1.17-4.51,1.15L57.9,444.15z"/>
</g>
</svg>
